name rise32.9588peak41.5061fall63.4684.mot
datacolumns 19
datarows 35
range 10.81663100000000 10.87329600000000
endheader
time	ground_force1_vx	ground_force1_vy	ground_force1_vz	ground_force1_px	ground_force1_py	ground_force1_pz	ground_force2_vx	ground_force2_vy	ground_force2_vz	ground_force2_px	ground_force2_py	ground_force2_pz	ground_torque1_x	ground_torque1_y	ground_torque1_z	ground_torque2_x	ground_torque2_y	ground_torque2_z	
10.81663100000000	-36.16019800000000	801.27215000000001	45.32933600000000	0.10136100000000	0.00000000000000	0.09919700000000	0.00000000000000	0.00000000000000	0.00000000000000	0.00000000000000	0.00000000000000	0.00000000000000	0.00000000000000	16.40706900000000	0.00000000000000	0.00000000000000	0.00000000000000	0.00000000000000	
10.81829300000000	-36.65547100000000	799.21284700000001	45.12386700000000	0.10056000000000	0.00000000000000	0.09909800000000	-1.08188200000000	3.43056900000000	0.75868400000000	0.00000000000000	0.00000000000000	0.00000000000000	0.00000000000000	16.32712700000000	0.00000000000000	0.00000000000000	0.17397100000000	0.00000000000000	
10.81995800000000	-37.17206600000000	797.05275900000004	44.90768800000000	0.09975600000000	0.00000000000000	0.09899700000000	-1.75631000000000	6.77481900000000	1.29464300000000	0.00000000000000	0.00000000000000	0.00000000000000	0.00000000000000	16.25000800000000	0.00000000000000	0.00000000000000	0.31126900000000	0.00000000000000	
10.82162900000000	-37.71030900000000	794.79036699999995	44.68057500000000	0.09894800000000	0.00000000000000	0.09889400000000	-2.52377900000000	10.83876100000000	1.91785400000000	0.00000000000000	0.00000000000000	0.00000000000000	0.00000000000000	16.17585200000000	0.00000000000000	0.00000000000000	0.47344400000000	0.00000000000000	
10.82329600000000	-38.27044200000000	792.42409999999995	44.44231200000000	0.09813700000000	0.00000000000000	0.09879000000000	-3.36219100000000	15.58595900000000	2.61446500000000	0.00000000000000	0.00000000000000	0.00000000000000	0.00000000000000	16.10478300000000	0.00000000000000	0.00000000000000	0.65761100000000	0.00000000000000	
10.82495500000000	-38.85261100000000	789.95232699999997	44.19269200000000	0.09732300000000	0.00000000000000	0.09868400000000	-4.24350500000000	20.94906000000000	3.36578900000000	0.00000000000000	0.00000000000000	0.00000000000000	0.00000000000000	16.03691500000000	0.00000000000000	0.00000000000000	0.85960300000000	0.00000000000000	
10.82662800000000	-39.45686700000000	787.37335800000005	43.93151700000000	0.09650600000000	0.00000000000000	0.09857600000000	-5.13554100000000	26.83500500000000	4.14954900000000	0.29645400000000	0.00000000000000	-0.07065700000000	0.00000000000000	15.97234400000000	0.00000000000000	0.00000000000000	1.94154800000000	0.00000000000000	
10.82829300000000	-40.08316200000000	784.68544699999995	43.65859900000000	0.09568600000000	0.00000000000000	0.09846700000000	-6.00429200000000	33.13298300000000	4.94152300000000	0.30152800000000	0.00000000000000	-0.07146000000000	0.00000000000000	15.91115300000000	0.00000000000000	0.00000000000000	2.35673800000000	0.00000000000000	
10.82997000000000	-40.73134500000000	781.88679200000001	43.37376400000000	0.09486300000000	0.00000000000000	0.09835700000000	-6.81644600000000	39.72410000000000	5.71739900000000	0.30607200000000	0.00000000000000	-0.07217200000000	0.00000000000000	15.85340900000000	0.00000000000000	0.00000000000000	2.77626400000000	0.00000000000000	
10.83162400000000	-41.40116100000000	778.97553600000003	43.07684600000000	0.09403700000000	0.00000000000000	0.09824500000000	-7.54177200000000	46.49136200000000	6.45457600000000	0.31016900000000	0.00000000000000	-0.07280700000000	0.00000000000000	15.79916000000000	0.00000000000000	0.00000000000000	3.18897400000000	0.00000000000000	
10.83329200000000	-42.09224700000000	775.94976799999995	42.76769500000000	0.09320900000000	0.00000000000000	0.09813100000000	-8.15507300000000	53.32864500000000	7.13367400000000	0.31388800000000	0.00000000000000	-0.07337800000000	0.00000000000000	15.74844000000000	0.00000000000000	0.00000000000000	3.58489000000000	0.00000000000000	
10.83495600000000	-42.80413300000000	772.80752900000005	42.44617400000000	0.09237900000000	0.00000000000000	0.09801700000000	-8.63751000000000	60.14768900000000	7.73961700000000	0.31728200000000	0.00000000000000	-0.07389700000000	0.00000000000000	15.70126500000000	0.00000000000000	0.00000000000000	3.95579900000000	0.00000000000000	
10.83662300000000	-43.53623500000000	769.54681600000004	42.11216000000000	0.09154700000000	0.00000000000000	0.09790000000000	-8.97722600000000	66.88263100000000	8.26219800000000	0.32039400000000	0.00000000000000	-0.07437000000000	0.00000000000000	15.65763000000000	0.00000000000000	0.00000000000000	4.29563000000000	0.00000000000000	
10.83829100000000	-44.28786100000000	766.16558099999997	41.76554900000000	0.09071200000000	0.00000000000000	0.09778300000000	-9.16931800000000	73.49197599999999	8.69617300000000	0.32326100000000	0.00000000000000	-0.07480500000000	0.00000000000000	15.61751600000000	0.00000000000000	0.00000000000000	4.60059300000000	0.00000000000000	
10.83995800000000	-45.05820400000000	762.66174300000000	41.40624800000000	0.08987700000000	0.00000000000000	0.09766400000000	-9.21523500000000	79.95824600000000	9.04092400000000	0.32591200000000	0.00000000000000	-0.07520600000000	0.00000000000000	15.58088100000000	0.00000000000000	0.00000000000000	4.86910500000000	0.00000000000000	
10.84163100000000	-45.84634600000000	759.03318999999999	41.03418800000000	0.08903900000000	0.00000000000000	0.09754400000000	-9.12176400000000	86.28570200000000	9.29979600000000	0.32837100000000	0.00000000000000	-0.07557900000000	0.00000000000000	15.54766700000000	0.00000000000000	0.00000000000000	5.10155600000000	0.00000000000000	
10.84329500000000	-46.65125400000000	755.27778300000000	40.64931300000000	0.08820100000000	0.00000000000000	0.09742200000000	-8.89975700000000	92.49667400000000	9.47923200000000	0.33066000000000	0.00000000000000	-0.07592700000000	0.00000000000000	15.51779600000000	0.00000000000000	0.00000000000000	5.29993800000000	0.00000000000000	
10.84497100000000	-47.47178400000000	751.39337100000000	40.25159000000000	0.08736200000000	0.00000000000000	0.09730000000000	-8.56274100000000	98.62703300000000	9.58778900000000	0.33279500000000	0.00000000000000	-0.07625300000000	0.00000000000000	15.49116900000000	0.00000000000000	0.00000000000000	5.46742100000000	0.00000000000000	
10.84662600000000	-48.30668100000000	747.37778700000001	39.84100400000000	0.08652200000000	0.00000000000000	0.09717700000000	-8.12555000000000	104.72134400000000	9.63516100000000	0.33479300000000	0.00000000000000	-0.07656100000000	0.00000000000000	15.46767000000000	0.00000000000000	0.00000000000000	5.60789400000000	0.00000000000000	
10.84829200000000	-49.15457700000000	743.22886800000003	39.41756200000000	0.08568200000000	0.00000000000000	0.09705200000000	-7.60309600000000	110.82813800000000	9.63127200000000	0.33666500000000	0.00000000000000	-0.07685100000000	0.00000000000000	15.44716200000000	0.00000000000000	0.00000000000000	5.72553200000000	0.00000000000000	
10.84995500000000	-50.01399900000000	738.94445399999995	38.98129300000000	0.08484100000000	0.00000000000000	0.09692700000000	-7.00933600000000	116.99566299999999	9.58550400000000	0.33842200000000	0.00000000000000	-0.07712700000000	0.00000000000000	15.42948900000000	0.00000000000000	0.00000000000000	5.82441300000000	0.00000000000000	
10.85162800000000	-50.88336600000000	734.52240400000005	38.53224800000000	0.08400200000000	0.00000000000000	0.09680000000000	-6.35649700000000	123.26836800000000	9.50610500000000	0.34007500000000	0.00000000000000	-0.07739000000000	0.00000000000000	15.41447500000000	0.00000000000000	0.00000000000000	5.90820800000000	0.00000000000000	
10.85328800000000	-51.76099300000000	729.96060299999999	38.07050200000000	0.08316200000000	0.00000000000000	0.09667300000000	-5.65456800000000	129.68425800000000	9.39977400000000	0.34163000000000	0.00000000000000	-0.07764100000000	0.00000000000000	15.40192500000000	0.00000000000000	0.00000000000000	5.97995800000000	0.00000000000000	
10.85495800000000	-52.64509600000000	725.25697400000001	37.59615300000000	0.08232400000000	0.00000000000000	0.09654500000000	-4.91105000000000	136.27317199999999	9.27144700000000	0.34309700000000	0.00000000000000	-0.07788100000000	0.00000000000000	15.39162800000000	0.00000000000000	0.00000000000000	6.04193500000000	0.00000000000000	
10.85662800000000	-53.53379300000000	720.40948900000001	37.10932500000000	0.08148600000000	0.00000000000000	0.09641600000000	-4.13094000000000	143.05594700000000	9.12424000000000	0.34447900000000	0.00000000000000	-0.07811300000000	0.00000000000000	15.38335000000000	0.00000000000000	0.00000000000000	6.09558700000000	0.00000000000000	
10.85828900000000	-54.42511000000000	715.41618500000004	36.61016700000000	0.08065000000000	0.00000000000000	0.09628700000000	-3.31690800000000	150.04436699999999	8.95955000000000	0.34578400000000	0.00000000000000	-0.07833500000000	0.00000000000000	15.37684400000000	0.00000000000000	0.00000000000000	6.14156000000000	0.00000000000000	
10.85997400000000	-55.31698500000000	710.27517100000000	36.09885300000000	0.07981600000000	0.00000000000000	0.09615700000000	-2.46961600000000	157.24176499999999	8.77725300000000	0.34701600000000	0.00000000000000	-0.07855000000000	0.00000000000000	15.37184200000000	0.00000000000000	0.00000000000000	6.17976800000000	0.00000000000000	
10.86162300000000	-56.20727300000000	704.98464899999999	35.57558400000000	0.07898400000000	0.00000000000000	0.09602700000000	-1.58813300000000	164.64410300000000	8.57599100000000	0.34817900000000	0.00000000000000	-0.07875900000000	0.00000000000000	15.36806200000000	0.00000000000000	0.00000000000000	6.20951700000000	0.00000000000000	
10.86329600000000	-57.09375000000000	699.54292499999997	35.04058800000000	0.07815400000000	0.00000000000000	0.09589600000000	-0.67039200000000	172.24136999999999	8.35348900000000	0.34927600000000	0.00000000000000	-0.07896100000000	0.00000000000000	15.36520400000000	0.00000000000000	0.00000000000000	6.22964300000000	0.00000000000000	
10.86497400000000	-57.97412100000000	693.94842600000004	34.49412100000000	0.07732600000000	0.00000000000000	0.09576500000000	0.28634400000000	180.01912300000001	8.10688800000000	0.35031200000000	0.00000000000000	-0.07915700000000	0.00000000000000	15.36295500000000	0.00000000000000	0.00000000000000	6.23866800000000	0.00000000000000	
10.86662600000000	-58.84602700000000	688.19971699999996	33.93646400000000	0.07650200000000	0.00000000000000	0.09563400000000	1.28505600000000	187.96004500000001	7.83306100000000	0.35128800000000	0.00000000000000	-0.07934800000000	0.00000000000000	15.36098700000000	0.00000000000000	0.00000000000000	6.23494600000000	0.00000000000000	
10.86829300000000	-59.70704600000000	682.29551600000002	33.36792700000000	0.07568000000000	0.00000000000000	0.09550300000000	2.32859100000000	196.04539299999999	7.52888700000000	0.35220700000000	0.00000000000000	-0.07953500000000	0.00000000000000	15.35895800000000	0.00000000000000	0.00000000000000	6.21680300000000	0.00000000000000	
10.86997200000000	-60.55470700000000	676.23471099999995	32.78884700000000	0.07486200000000	0.00000000000000	0.09537100000000	3.41936500000000	204.25624700000000	7.19148700000000	0.35307200000000	0.00000000000000	-0.07971700000000	0.00000000000000	15.35651700000000	0.00000000000000	0.00000000000000	6.18265100000000	0.00000000000000	
10.87162200000000	-61.38649200000000	670.01637700000003	32.19959000000000	0.07404700000000	0.00000000000000	0.09524000000000	4.55914500000000	212.57452400000000	6.81838800000000	0.35388400000000	0.00000000000000	-0.07989500000000	0.00000000000000	15.35329700000000	0.00000000000000	0.00000000000000	6.13107400000000	0.00000000000000	
10.87329600000000	-62.19984400000000	663.63979099999995	31.60054600000000	0.07323500000000	0.00000000000000	0.09510800000000	5.74891600000000	220.98370700000001	6.40764200000000	0.35464500000000	0.00000000000000	-0.08006900000000	0.00000000000000	15.34892700000000	0.00000000000000	0.00000000000000	6.06089400000000	0.00000000000000	
